<svg width="1920" height="1080" version="1.1" viewBox="0 0 1920 1080" xmlns="http://www.w3.org/2000/svg">
 <path d="m604 62.6c0 23.6 19.1 42.7 42.7 42.7h91.8c23.6 0 42.7 19.1 42.7 42.7v96c0 23.6-19.1 42.7-42.7 42.7h-96c-23.6 0-42.7-19.1-42.7-42.7v-64c0-23.6-19.1-42.7-42.7-42.7h-273c-23.6 0-42.7-19.1-42.7-42.7v-90.7c0-23.6 19.1-42.7 42.7-42.7h277c23.6 0 42.7 19.1 42.7 42.7z" fill="#00f899" style="fill-opacity:.122;fill:#00f794"/>
 <path d="m1460 79.9c0 22.2 18 40.1 40.1 40.1h100c22.2 0 40.1 18 40.1 40.1v101c0 22.2-18 40.1-40.1 40.1h-100c-22.2 0-40.1 18-40.1 40.1v87.5c0 22.2-18 40.1-40.1 40.1h-101c-22.2 0-40.1-18-40.1-40.1v-101c0-22.2 18-40.1 40.1-40.1h100c22.2 0 40.1-18 40.1-40.1v-66.2c0-22.2-18-40.1-40.1-40.1h-100c-22.2 0-40.1-18-40.1-40.1v-101c0-22.2 18-40.1 40.1-40.1h101c22.2 0 40.1 18 40.1 40.1z" fill="#061321" style="fill-opacity:.102;fill:#4e76f5"/>
 <path d="m1826 780c19.2 0 34.7 15.5 34.7 34.7v145c0 0.164-0.134 0.297-0.297 0.297-0.164 0-0.297 0.133-0.297 0.296v142c0 19.2-15.5 34.7-34.7 34.7h-111c-19.2 0-34.7-15.5-34.7-34.7v-107c0-19.2-15.5-34.7-34.7-34.7h-107c-19.2 0-34.7-15.5-34.7-34.7v-111c0-19.2 15.5-34.7 34.7-34.7z" fill="#00f899" style="fill-opacity:.122;fill:#00f794"/>
 <path d="m719 525c0 24.3 19.7 44.1 44.1 44.1h273c24.3 0 44.1 19.7 44.1 44.1v93.3c0 24.3 19.7 44.1 44.1 44.1h89.5c24.3 0 44.1 19.7 44.1 44.1v93.7c0 24.3-19.7 44.1-44.1 44.1h-93.7c-24.3 0-44.1-19.7-44.1-44.1v-93.3c0-24.3-19.7-44.1-44.1-44.1h-271c-24.3 0-44.1-19.7-44.1-44.1v-88.5c0-24.3-19.7-44.1-44.1-44.1h-90.8c-24.3 0-44.1-19.7-44.1-44.1v-93.7c0-24.3 19.7-44.1 44.1-44.1h93.7c24.3 0 44.1 19.7 44.1 44.1z" fill="#061321" style="fill-opacity:.122;fill:#de9cf7"/>
 <path d="m123 735c0 24.3 19.7 44 44 44h271c24.3 0 44 19.7 44 44v93.4c0 24.3-19.7 44-44 44h-275c-24.3 0-44-19.7-44-44v-60.5c0-24.3-19.7-44-44-44h-89.3c-24.3 0-44-19.7-44-44v-93.4c0-24.3 19.7-44 44-44h93.4c24.3 0 44 19.7 44 44z" fill="#3f64f3" style="fill-opacity:.102;fill:#4e76f5"/>
</svg>
